<?xml version="1.0" encoding="UTF-8"?>
<!DOCTYPE svg PUBLIC "-//W3C//DTD SVG 1.0//EN" "http://www.w3.org/TR/2001/REC-SVG-20010904/DTD/svg10.dtd">
<!-- Creator: CorelDRAW -->
<svg xmlns="http://www.w3.org/2000/svg" xml:space="preserve" width="3.7315mm" height="3.748mm" version="1.0" style="shape-rendering:geometricPrecision; text-rendering:geometricPrecision; image-rendering:optimizeQuality; fill-rule:evenodd; clip-rule:evenodd"
viewBox="0 0 3.4 3.42"
 xmlns:xlink="http://www.w3.org/1999/xlink"
 xmlns:xodm="http://www.corel.com/coreldraw/odm/2003">
 <defs>
  <style type="text/css">
   <![CDATA[
    .fil1 {fill:#4D4D4D;fill-rule:nonzero}
    .fil0 {fill:#FF6600;fill-rule:nonzero}
   ]]>
  </style>
 </defs>
 <g id="Layer_x0020_1">
  <metadata id="CorelCorpID_0Corel-Layer"/>
  <g id="_2997242956944">
   <path class="fil0" d="M3.4 3.29c-0.02,-0.23 -0.02,-0.47 -0.02,-0.7 0,-0.12 0,-0.23 0.01,-0.35 0,-0.11 0.01,-0.22 -0.03,-0.32 -0.09,-0.23 -0.4,-0.28 -0.62,-0.28 -0.11,0 -0.23,0.02 -0.34,0.05 -0.08,0.02 -0.16,0.05 -0.23,0.09l0.07 0.18c0.02,0.03 0.02,0.07 0.03,0.11 0.15,-0.07 0.3,-0.11 0.44,-0.11 0.23,0 0.35,0.09 0.35,0.27l0 0.09c-0.03,0 -0.09,-0.01 -0.16,-0.01 -0.3,0 -0.52,0.05 -0.68,0.13 -0.15,0.09 -0.23,0.24 -0.23,0.47 0,0.16 0.05,0.3 0.15,0.39 0.1,0.09 0.23,0.14 0.39,0.14 0.14,0 0.25,-0.02 0.34,-0.06 0.09,-0.04 0.16,-0.1 0.22,-0.18l0.01 0c0.01,0.04 0.01,0.1 0.03,0.19 0,0.01 0.26,0 0.28,0 0.01,-0.04 0,-0.06 0,-0.09zm-0.34 -0.57c0,0.04 -0.01,0.08 -0.02,0.12 -0.01,0.03 -0.02,0.06 -0.05,0.09 -0.07,0.1 -0.19,0.15 -0.3,0.17 -0.07,0.01 -0.14,0.01 -0.22,-0.01 -0.06,-0.01 -0.11,-0.04 -0.14,-0.09 -0.05,-0.08 -0.04,-0.2 0.02,-0.28 0.03,-0.05 0.09,-0.07 0.14,-0.09 0.14,-0.05 0.31,-0.05 0.45,-0.05l0.12 0.01 0 0.13z"/>
   <path class="fil1" d="M1.98 2.06l-0.81 -2c-0.01,-0.04 -0.05,-0.06 -0.09,-0.06l-0.26 0c-0.04,0 -0.08,0.03 -0.09,0.06l-0.74 2c-0.02,0.04 0.01,0.09 0.05,0.09l0.28 0c0.04,0 0.08,-0.03 0.09,-0.07l0.19 -0.52 0.73 0 0.21 0.52c0.01,0.04 0.05,0.07 0.09,0.07l0.28 0c0.05,0 0.08,-0.05 0.06,-0.09zm-1.22 -0.9l0.21 -0.55 0.23 0.55 -0.44 0z"/>
  </g>
 </g>
</svg>
