<?xml version="1.0" encoding="UTF-8"?>
<!DOCTYPE svg PUBLIC "-//W3C//DTD SVG 1.0//EN" "http://www.w3.org/TR/2001/REC-SVG-20010904/DTD/svg10.dtd">
<!-- Creator: CorelDRAW -->
<svg xmlns="http://www.w3.org/2000/svg" xml:space="preserve" width="3.8573mm" height="3.8572mm" version="1.0" style="shape-rendering:geometricPrecision; text-rendering:geometricPrecision; image-rendering:optimizeQuality; fill-rule:evenodd; clip-rule:evenodd"
viewBox="0 0 3.64 3.64"
 xmlns:xlink="http://www.w3.org/1999/xlink"
 xmlns:xodm="http://www.corel.com/coreldraw/odm/2003">
 <defs>
  <style type="text/css">
   <![CDATA[
    .fil1 {fill:#4D4D4D;fill-rule:nonzero}
    .fil0 {fill:#FF6600;fill-rule:nonzero}
   ]]>
  </style>
 </defs>
 <g id="Layer_x0020_1">
  <metadata id="CorelCorpID_0Corel-Layer"/>
  <g id="_3033280911808">
   <path class="fil0" d="M3.45 2.68c0.05,0 0.1,0.02 0.14,0.06 0.04,0.04 0.06,0.08 0.06,0.14 0,0.05 -0.02,0.1 -0.06,0.14 -0.04,0.04 -0.08,0.06 -0.14,0.06l-0.38 0 0 0.38c0,0.05 -0.02,0.1 -0.06,0.14 -0.04,0.04 -0.08,0.06 -0.14,0.06 -0.05,0 -0.1,-0.02 -0.14,-0.06 -0.04,-0.04 -0.06,-0.08 -0.06,-0.14l0 -0.38 -0.38 0c-0.05,0 -0.1,-0.02 -0.14,-0.06 -0.04,-0.04 -0.06,-0.08 -0.06,-0.14 0,-0.05 0.02,-0.1 0.06,-0.14 0.04,-0.04 0.08,-0.06 0.14,-0.06l0.38 0 0 -0.38c0,-0.05 0.02,-0.1 0.06,-0.14 0.04,-0.04 0.08,-0.06 0.14,-0.06 0.05,0 0.1,0.02 0.14,0.06 0.04,0.04 0.06,0.08 0.06,0.14l0 0.38 0.38 0z"/>
   <path class="fil1" d="M2.49 1.34c0.21,0 0.38,-0.17 0.38,-0.38 0,-0.21 -0.17,-0.38 -0.38,-0.38 -0.21,0 -0.38,0.17 -0.38,0.38 0,0.21 0.17,0.38 0.38,0.38zm-0.57 -1.34l1.15 0c0.21,0 0.38,0.17 0.38,0.38l0 1.15c0,0.06 0,0.19 -0.29,0.19l-0.29 0c-0.63,0 -1.15,0.51 -1.15,1.15l0 0.38c0,0.22 -0.17,0.23 -0.38,0.16 -0.08,-0.03 -0.15,-0.07 -0.21,-0.14l-0.96 -0.96c-0.22,-0.22 -0.22,-0.59 0,-0.81l1.34 -1.34c0.11,-0.11 0.26,-0.17 0.41,-0.17z"/>
  </g>
 </g>
</svg>
