<?xml version="1.0" encoding="UTF-8"?>
<!DOCTYPE svg PUBLIC "-//W3C//DTD SVG 1.0//EN" "http://www.w3.org/TR/2001/REC-SVG-20010904/DTD/svg10.dtd">
<!-- Creator: CorelDRAW -->
<svg xmlns="http://www.w3.org/2000/svg" xml:space="preserve" width="3.6218mm" height="4.581mm" version="1.0" style="shape-rendering:geometricPrecision; text-rendering:geometricPrecision; image-rendering:optimizeQuality; fill-rule:evenodd; clip-rule:evenodd"
viewBox="0 0 20.94 26.49"
 xmlns:xlink="http://www.w3.org/1999/xlink"
 xmlns:xodm="http://www.corel.com/coreldraw/odm/2003">
 <defs>
  <style type="text/css">
   <![CDATA[
    .str1 {stroke:#4D4D4D;stroke-width:1.53;stroke-linecap:round;stroke-linejoin:round;stroke-miterlimit:22.9256}
    .str0 {stroke:#FF6600;stroke-width:1.53;stroke-linecap:round;stroke-linejoin:round;stroke-miterlimit:22.9256}
    .fil0 {fill:none}
    .fil1 {fill:none;fill-rule:nonzero}
   ]]>
  </style>
 </defs>
 <g id="Layer_x0020_1">
  <metadata id="CorelCorpID_0Corel-Layer"/>
  <g id="_3032197766736">
   <path class="fil0 str0" d="M7.7 0.76l5.55 0c0.77,0 1.39,0.62 1.39,1.39l0 1.39c0,0.77 -0.62,1.39 -1.39,1.39l-5.55 0c-0.77,0 -1.39,-0.62 -1.39,-1.39l0 -1.39c0,-0.77 0.62,-1.39 1.39,-1.39z"/>
   <path id="primary" class="fil0 str1" d="M18.79 2.15c0.77,0 1.39,0.62 1.39,1.39l0 20.8c0,0.77 -0.62,1.39 -1.39,1.39l-16.64 0c-0.77,0 -1.39,-0.62 -1.39,-1.39l0 -20.8c0,-0.77 0.62,-1.39 1.39,-1.39"/>
   <path class="fil1 str0" d="M10.47 9.96l0 7.95m3.97 -3.97l-7.95 0"/>
  </g>
 </g>
</svg>
