<?xml version="1.0" encoding="UTF-8"?>
<!DOCTYPE svg PUBLIC "-//W3C//DTD SVG 1.0//EN" "http://www.w3.org/TR/2001/REC-SVG-20010904/DTD/svg10.dtd">
<!-- Creator: CorelDRAW -->
<svg xmlns="http://www.w3.org/2000/svg" xml:space="preserve" width="2.594mm" height="3.2425mm" version="1.0" style="shape-rendering:geometricPrecision; text-rendering:geometricPrecision; image-rendering:optimizeQuality; fill-rule:evenodd; clip-rule:evenodd"
viewBox="0 0 0.89 1.11"
 xmlns:xlink="http://www.w3.org/1999/xlink"
 xmlns:xodm="http://www.corel.com/coreldraw/odm/2003">
 <defs>
  <style type="text/css">
   <![CDATA[
    .fil0 {fill:gray;fill-rule:nonzero}
   ]]>
  </style>
 </defs>
 <g id="Layer_x0020_1">
  <metadata id="CorelCorpID_0Corel-Layer"/>
  <path id="primary" class="fil0" d="M0.78 0l-0.67 0c-0.06,0 -0.11,0.05 -0.11,0.11l0 0.94c0,0.02 0.01,0.04 0.03,0.05 0.01,0 0.02,0.01 0.03,0.01 0.01,0 0.02,-0 0.03,-0.01l0.36 -0.21 0.36 0.21c0.01,0 0.02,0.01 0.03,0.01 0,0 0,0 0,0 0,0 0,0 0,0 0.01,0 0.02,-0 0.03,-0.01 0.02,-0.01 0.03,-0.03 0.03,-0.05l0 -0.94c0,-0.06 -0.05,-0.11 -0.11,-0.11l0 0z"/>
 </g>
</svg>
