<?xml version="1.0" encoding="UTF-8"?>
<!DOCTYPE svg PUBLIC "-//W3C//DTD SVG 1.0//EN" "http://www.w3.org/TR/2001/REC-SVG-20010904/DTD/svg10.dtd">
<!-- Creator: CorelDRAW -->
<svg xmlns="http://www.w3.org/2000/svg" xml:space="preserve" width="3.8636mm" height="3.4673mm" version="1.0" style="shape-rendering:geometricPrecision; text-rendering:geometricPrecision; image-rendering:optimizeQuality; fill-rule:evenodd; clip-rule:evenodd"
viewBox="0 0 3.65 3.28"
 xmlns:xlink="http://www.w3.org/1999/xlink"
 xmlns:xodm="http://www.corel.com/coreldraw/odm/2003">
 <defs>
  <style type="text/css">
   <![CDATA[
    .fil0 {fill:#4D4D4D;fill-rule:nonzero}
    .fil1 {fill:#FF6600;fill-rule:nonzero}
   ]]>
  </style>
 </defs>
 <g id="Layer_x0020_1">
  <metadata id="CorelCorpID_0Corel-Layer"/>
  <g id="_3033278540304">
   <path class="fil0" d="M0.31 1.01l-0.12 -0.07 0 0 0.12 0.07zm3.03 0l0.12 -0.07 0 0 -0.12 0.07zm0 1.25l-0.12 -0.07 0.12 0.07zm-3.03 0l0.12 -0.07 -0.12 0.07zm0.12 -1.18c0.63,-1.07 2.16,-1.07 2.79,0l0.24 -0.14c-0.73,-1.25 -2.54,-1.25 -3.27,0l0.24 0.14zm2.79 0c0.2,0.34 0.2,0.77 0,1.11l0.24 0.14c0.25,-0.43 0.25,-0.97 0,-1.4l-0.24 0.14zm0 1.11c-0.63,1.07 -2.16,1.07 -2.79,0l-0.24 0.14c0.73,1.25 2.54,1.25 3.27,0l-0.24 -0.14zm-2.79 0c-0.2,-0.34 -0.2,-0.77 0,-1.11l-0.24 -0.14c-0.25,0.43 -0.25,0.97 0,1.4l0.24 -0.14z"/>
   <path class="fil1" d="M2.35 1.65c0,0.3 -0.24,0.54 -0.53,0.54l0 0.28c0.45,0 0.81,-0.37 0.81,-0.82l-0.28 0zm-0.53 0.54c-0.29,0 -0.53,-0.24 -0.53,-0.54l-0.28 0c0,0.45 0.36,0.82 0.81,0.82l0 -0.28zm-0.53 -0.54c0,-0.3 0.24,-0.54 0.53,-0.54l0 -0.28c-0.45,0 -0.81,0.37 -0.81,0.82l0.28 0zm0.53 -0.54c0.29,0 0.53,0.24 0.53,0.54l0.28 0c0,-0.45 -0.36,-0.82 -0.81,-0.82l0 0.28z"/>
  </g>
 </g>
</svg>
