<?xml version="1.0" encoding="UTF-8"?>
<!DOCTYPE svg PUBLIC "-//W3C//DTD SVG 1.0//EN" "http://www.w3.org/TR/2001/REC-SVG-20010904/DTD/svg10.dtd">
<!-- Creator: CorelDRAW -->
<svg xmlns="http://www.w3.org/2000/svg" xml:space="preserve" width="3.8323mm" height="3.9376mm" version="1.0" style="shape-rendering:geometricPrecision; text-rendering:geometricPrecision; image-rendering:optimizeQuality; fill-rule:evenodd; clip-rule:evenodd"
viewBox="0 0 3.59 3.69"
 xmlns:xlink="http://www.w3.org/1999/xlink"
 xmlns:xodm="http://www.corel.com/coreldraw/odm/2003">
 <defs>
  <style type="text/css">
   <![CDATA[
    .str0 {stroke:#4D4D4D;stroke-width:0.25;stroke-linecap:round;stroke-linejoin:round;stroke-miterlimit:22.9256}
    .str1 {stroke:#FF6600;stroke-width:0.25;stroke-linecap:round;stroke-linejoin:round;stroke-miterlimit:22.9256}
    .fil0 {fill:none}
    .fil2 {fill:white}
    .fil1 {fill:white}
   ]]>
  </style>
 </defs>
 <g id="Layer_x0020_1">
  <metadata id="CorelCorpID_0Corel-Layer"/>
  <g id="_2996737510416">
   <g>
    <path id="primary" class="fil0 str0" d="M2.64 0.75l0 2.04c0,0.09 -0.07,0.16 -0.16,0.16l-2.2 0c-0.09,0 -0.16,-0.07 -0.16,-0.16l0 -2.51c0,-0.09 0.07,-0.16 0.16,-0.16l1.73 0 0.63 0.63z"/>
   </g>
   <g>
    <path id="primary_0" class="fil1 str0" d="M3.05 1.06l0 2.04c0,0.09 -0.07,0.16 -0.16,0.16l-2.2 0c-0.09,0 -0.16,-0.07 -0.16,-0.16l0 -2.51c0,-0.09 0.07,-0.16 0.16,-0.16l1.73 0 0.63 0.63z"/>
   </g>
   <g>
    <path id="primary_1" class="fil2 str1" d="M3.47 1.37l0 2.04c0,0.09 -0.07,0.16 -0.16,0.16l-2.2 0c-0.09,0 -0.16,-0.07 -0.16,-0.16l0 -2.51c0,-0.09 0.07,-0.16 0.16,-0.16l1.73 0 0.63 0.63z"/>
   </g>
  </g>
 </g>
</svg>
