<?xml version="1.0" encoding="UTF-8"?>
<!DOCTYPE svg PUBLIC "-//W3C//DTD SVG 1.0//EN" "http://www.w3.org/TR/2001/REC-SVG-20010904/DTD/svg10.dtd">
<!-- Creator: CorelDRAW -->
<svg xmlns="http://www.w3.org/2000/svg" xml:space="preserve" width="3.1961mm" height="3.196mm" version="1.0" style="shape-rendering:geometricPrecision; text-rendering:geometricPrecision; image-rendering:optimizeQuality; fill-rule:evenodd; clip-rule:evenodd"
viewBox="0 0 3.57 3.57"
 xmlns:xlink="http://www.w3.org/1999/xlink"
 xmlns:xodm="http://www.corel.com/coreldraw/odm/2003">
 <defs>
  <style type="text/css">
   <![CDATA[
    .str0 {stroke:#FF6600;stroke-width:0.3;stroke-miterlimit:22.9256}
    .str1 {stroke:#666666;stroke-width:0.3;stroke-linecap:round;stroke-miterlimit:22.9256}
    .fil0 {fill:none}
   ]]>
  </style>
 </defs>
 <g id="Layer_x0020_1">
  <metadata id="CorelCorpID_0Corel-Layer"/>
  <g id="_3032197679456">
   <path class="fil0 str0" d="M3.32 0.85c-0.3,0.1 -0.71,-0.3 -0.61,-0.61m-0.02 0.02l-0.65 0.65c-0.28,0.28 -0.49,0.64 -0.58,1.03l-0.03 0.13c-0.01,0.04 0.03,0.07 0.07,0.07l0.13 -0.03c0.39,-0.1 0.74,-0.3 1.03,-0.58l0.65 -0.65c0.08,-0.08 0.13,-0.19 0.13,-0.3 0,-0.24 -0.19,-0.43 -0.43,-0.43 -0.11,0 -0.22,0.05 -0.3,0.13z"/>
   <path class="fil0 str1" d="M1.78 0.15c-0.19,0 -0.37,0.02 -0.55,0.06 -0.5,0.12 -0.9,0.51 -1.02,1.02 -0.09,0.36 -0.09,0.74 0,1.11 0.12,0.5 0.51,0.9 1.02,1.02 0.36,0.09 0.74,0.09 1.11,0 0.51,-0.12 0.9,-0.51 1.02,-1.02 0.04,-0.18 0.06,-0.37 0.06,-0.55"/>
  </g>
 </g>
</svg>
