<?xml version="1.0" encoding="UTF-8"?>
<!DOCTYPE svg PUBLIC "-//W3C//DTD SVG 1.0//EN" "http://www.w3.org/TR/2001/REC-SVG-20010904/DTD/svg10.dtd">
<!-- Creator: CorelDRAW -->
<svg xmlns="http://www.w3.org/2000/svg" xml:space="preserve" width="3.8814mm" height="4.0615mm" version="1.0" style="shape-rendering:geometricPrecision; text-rendering:geometricPrecision; image-rendering:optimizeQuality; fill-rule:evenodd; clip-rule:evenodd"
viewBox="0 0 3.69 3.86"
 xmlns:xlink="http://www.w3.org/1999/xlink"
 xmlns:xodm="http://www.corel.com/coreldraw/odm/2003">
 <defs>
  <style type="text/css">
   <![CDATA[
    .fil1 {fill:#4D4D4D;fill-rule:nonzero}
    .fil0 {fill:#FF6600;fill-rule:nonzero}
   ]]>
  </style>
 </defs>
 <g id="Layer_x0020_1">
  <metadata id="CorelCorpID_0Corel-Layer"/>
  <g id="_2997103660528">
   <path class="fil0" d="M3.69 2.57c0,0 0,-0 0,-0 0,-0 -0,-0 -0,-0 -0,-0.04 -0.02,-0.07 -0.04,-0.1l-0.19 -0.19c-0.02,-0.02 -0.06,-0.02 -0.08,0 -0.02,0.02 -0.02,0.06 0,0.08l0.15 0.15 -0.35 0c-0,-0 -0.01,-0.01 -0.01,-0.01l-0.28 -0.28c-0,-0 -0.01,-0.01 -0.01,-0.01l0 -0.35 0.37 0.36c0.02,0.02 0.06,0.02 0.08,-0 0.02,-0.02 0.02,-0.06 -0,-0.08l-0.4 -0.4c-0.03,-0.03 -0.06,-0.04 -0.1,-0.04 -0,0 -0,-0 -0,-0 0,0 -0,0 -0,0 -0,-0 -0,-0 -0,-0 -0.04,0 -0.08,0.02 -0.11,0.04l-0.74 0.73c-0.03,0.03 -0.04,0.07 -0.04,0.11 0,0.04 0.02,0.08 0.04,0.11l0.74 0.73c0.03,0.03 0.06,0.04 0.1,0.04 0,0 0,0 0,0 0,0 0,0 0.01,0 0.04,0 0.08,-0.02 0.11,-0.04l0.74 -0.73c0.03,-0.03 0.04,-0.07 0.04,-0.11 0,-0 -0,-0 -0,-0zm-0.94 -0.72l0 0.35c-0.01,0 -0.01,0.01 -0.02,0.01l-0.28 0.28c-0.01,0.01 -0.01,0.01 -0.02,0.02l-0.36 0 0.67 -0.67zm-0.01 1.44l-0.06 -0.06 -0.59 -0.59 0.35 0c0,0 0.01,0.01 0.01,0.01l0.28 0.28c0,0 0.01,0.01 0.01,0.01l0 0.35 0 0zm0.06 -0.45l-0.26 -0.26 0.26 -0.26 0.26 0.26 -0.26 0.26zm0.05 0.46l0 -0.35c0.01,-0 0.01,-0.01 0.02,-0.02l0.28 -0.28c0.01,-0.01 0.01,-0.01 0.01,-0.02l0.35 0 -0.67 0.67z"/>
   <path class="fil1" d="M3.12 0.53l-0.3 -0.46c-0.03,-0.04 -0.08,-0.07 -0.13,-0.07l-1.08 0c-0.05,0 -0.1,0.03 -0.13,0.07l-0.3 0.46c-0.04,0.06 -0.03,0.13 0.01,0.18l0.84 1.03c0.03,0.04 0.07,0.06 0.12,0.06 0.05,0 0.09,-0.02 0.12,-0.06l0.48 -0.58c0.02,-0.03 0.02,-0.06 -0.01,-0.08 -0.03,-0.02 -0.06,-0.02 -0.08,0.01l-0.38 0.46 0.28 -0.86 0.42 0 -0.21 0.25c-0.02,0.03 -0.02,0.06 0.01,0.08 0.03,0.02 0.06,0.02 0.08,-0.01l0.24 -0.3c0.04,-0.05 0.05,-0.12 0.01,-0.18zm-1.08 -0.41l-0.19 0.28 -0.19 -0.28 0.37 0zm-0.48 0.05l0.22 0.34 -0.03 0.05 -0.45 0 0.26 -0.39zm-0.24 0.51l0.43 0 0.28 0.86 -0.71 -0.86zm0.83 0.87l-0.28 -0.87 0.2 0c0.03,0 0.06,-0.03 0.06,-0.06 0,-0.03 -0.03,-0.06 -0.06,-0.06l-0.18 0 0.26 -0.39 0.26 0.39 -0.12 0c-0.03,0 -0.06,0.03 -0.06,0.06 0,0.03 0.03,0.06 0.06,0.06l0.15 0 -0.28 0.87zm0.11 -1.43l0.37 0 -0.19 0.28 -0.19 -0.28zm0.29 0.44l-0.03 -0.05 0.22 -0.34 0.26 0.39 -0.45 0z"/>
   <path class="fil1" d="M1.57 2.3c0.03,0 0.06,-0.03 0.06,-0.06l0 -0.48c0,-0.04 -0.02,-0.09 -0.05,-0.11l-0.66 -0.6c-0.03,-0.03 -0.07,-0.04 -0.11,-0.04 -0.04,0 -0.08,0.01 -0.11,0.04l-0.66 0.6c-0.03,0.03 -0.05,0.07 -0.05,0.11l0 1.33c0,0.04 0.02,0.08 0.05,0.11l0.66 0.61c0.03,0.03 0.07,0.04 0.11,0.04 0.04,0 0.08,-0.01 0.11,-0.04l0.66 -0.61c0.03,-0.03 0.05,-0.07 0.05,-0.11l0 -0.63c0,-0.03 -0.03,-0.06 -0.06,-0.06 -0.03,0 -0.06,0.03 -0.06,0.06l0 0.55 -0.27 -0.09 0 -0.99 0.27 -0.09 0 0.4c0,0.03 0.03,0.06 0.06,0.06zm-0.82 -1.14l0 0.37 -0.32 0.29 -0.3 -0.1 0.62 -0.56zm-0.64 0.68l0.27 0.09 0 0.99 -0.27 0.09 0 -1.17zm0.64 1.86l-0.62 -0.57 0.3 -0.1 0.32 0.3 0 0.37zm0.74 -0.57l-0.62 0.57 0 -0.37 0.32 -0.3 0.3 0.1zm-0.3 -1.31l-0.08 -0.08c-0.02,-0.02 -0.06,-0.02 -0.08,0 -0.02,0.02 -0.02,0.06 0,0.08l0.09 0.08 0 1.03 -0.31 0.28 -0.31 -0.28 0 -1.03 0.31 -0.28 0.07 0.06c0.02,0.02 0.06,0.02 0.08,-0 0.02,-0.02 0.02,-0.06 -0,-0.08l-0.09 -0.08 0 -0.37 0.62 0.56 -0.3 0.1z"/>
  </g>
 </g>
</svg>
