<?xml version="1.0" encoding="UTF-8"?>
<!DOCTYPE svg PUBLIC "-//W3C//DTD SVG 1.1//EN" "http://www.w3.org/Graphics/SVG/1.1/DTD/svg11.dtd">
<!-- Creator: CorelDRAW -->
<svg xmlns="http://www.w3.org/2000/svg" xml:space="preserve" width="66.146mm" height="16.5837mm" version="1.1" style="shape-rendering:geometricPrecision; text-rendering:geometricPrecision; image-rendering:optimizeQuality; fill-rule:evenodd; clip-rule:evenodd"
viewBox="0 0 22.6041 5.6672"
 xmlns:xlink="http://www.w3.org/1999/xlink"
 xmlns:xodm="http://www.corel.com/coreldraw/odm/2003">
 <defs>
  <style type="text/css">
   <![CDATA[
    .fil0 {fill:#666666;fill-rule:nonzero}
    .fil1 {fill:#FF6600;fill-rule:nonzero}
   ]]>
  </style>
 </defs>
 <g id="Layer_x0020_1">
  <metadata id="CorelCorpID_0Corel-Layer"/>
  <path class="fil0" d="M12.4149 4.1356c-0.1691,0 -0.3063,-0.1371 -0.3063,-0.3062l0 -0.0009c-0.2561,0.1927 -0.5744,0.3071 -0.9189,0.3071 -0.8445,0 -1.5316,-0.687 -1.5316,-1.5315 0,-0.8445 0.687,-1.5315 1.5316,-1.5315 0.8418,0 1.5271,0.6827 1.5314,1.5236l0.0001 0.008 0 1.2252c0,0.1692 -0.1371,0.3063 -0.3063,0.3063zm-0.3063 -1.5265l0 -0.005 0 -0.0024c-0.0014,-0.5057 -0.413,-0.9166 -0.9189,-0.9166 -0.5067,0 -0.9189,0.4122 -0.9189,0.9189 0,0.5067 0.4122,0.9189 0.9189,0.9189 0.5051,0 0.9162,-0.4096 0.9189,-0.914z"/>
  <path class="fil0" d="M15.5186 4.1357c-0.1693,0 -0.3064,-0.1372 -0.3064,-0.3063l0 -2.4505c0,-0.1692 0.1371,-0.3064 0.3064,-0.3064 0.1691,0 0.3063,0.1371 0.3063,0.3064l0 2.4504c0,0.1691 -0.1372,0.3063 -0.3063,0.3063zm0 -3.3695c-0.0807,0 -0.16,-0.0325 -0.2167,-0.0897 -0.0568,-0.0567 -0.0897,-0.1356 -0.0897,-0.2167 0,-0.0804 0.0329,-0.1594 0.0897,-0.2161 0.0571,-0.0572 0.136,-0.0902 0.2167,-0.0902 0.0804,0 0.1592,0.033 0.2165,0.0902 0.0568,0.0567 0.0897,0.1357 0.0897,0.2161 0,0.0811 -0.0329,0.16 -0.0897,0.2167 -0.0566,0.0572 -0.1361,0.0897 -0.2165,0.0897z"/>
  <path class="fil0" d="M7.8002 5.6672c-0.1692,0 -0.3062,-0.1371 -0.3062,-0.3064 0,-0.1692 0.137,-0.3063 0.3062,-0.3063 0.5068,0 0.919,-0.4121 0.919,-0.9189l0 -0.307c-0.2562,0.1927 -0.5744,0.3071 -0.919,0.3071 -0.8445,0 -1.5316,-0.687 -1.5316,-1.5315 0,-0.8445 0.687,-1.5316 1.5316,-1.5316 0.8446,0 1.5316,0.687 1.5316,1.5316l-0 0.005 0 1.5266c0,0.8445 -0.6872,1.5315 -1.5315,1.5315zm0 -3.982c-0.5067,0 -0.9189,0.4122 -0.9189,0.9189 0,0.5067 0.4122,0.9189 0.9189,0.9189 0.5068,0 0.919,-0.4122 0.919,-0.9189 0,-0.5068 -0.4122,-0.9189 -0.919,-0.9189z"/>
  <path class="fil0" d="M5.2124 1.8749l-1.1252 1.1252 -0 0c-0.0575,-0.12 -0.0898,-0.2542 -0.0898,-0.396 0,-0.5067 0.4122,-0.9189 0.919,-0.9189 0.1392,0 0.2733,0.0317 0.3955,0.0902l-0.0995 0.0994 0.5144 0.3522 0.2725 -0.2727c0.1022,-0.1021 0.1163,-0.2581 0.044,-0.376 -0.0123,-0.0202 -0.0265,-0.0397 -0.044,-0.0571 -0.0002,-0.0002 -0.0002,-0.0002 -0.0004,-0.0004 -0.2892,-0.2891 -0.6736,-0.4482 -1.0826,-0.4482 -0.8446,0 -1.5316,0.687 -1.5316,1.5315 0,0.8445 0.687,1.5315 1.5316,1.5315 0.409,0 0.7937,-0.1593 1.0828,-0.4486 0.1196,-0.1196 0.1196,-0.3135 0,-0.4332 -0.1195,-0.1196 -0.3134,-0.1196 -0.433,0 -0.1735,0.1736 -0.4044,0.2691 -0.6497,0.2691 -0.1417,0 -0.276,-0.0323 -0.3959,-0.0898l1.2063 -1.2062 -0.5143 -0.3522z"/>
  <path class="fil0" d="M18.9084 4.1252c-0.1693,0 -0.3065,-0.1372 -0.3065,-0.3063l0 -1.2252c0,-0.5068 -0.4122,-0.919 -0.9189,-0.919 -0.5067,0 -0.9189,0.4122 -0.9189,0.919l0 1.2252c0,0.1691 -0.1372,0.3063 -0.3064,0.3063 -0.1692,0 -0.3064,-0.1372 -0.3064,-0.3063l0 -1.2252c0,-0.8445 0.687,-1.5315 1.5316,-1.5315 0.8446,0 1.5316,0.687 1.5316,1.5315l0 1.2252c0.0002,0.1691 -0.137,0.3063 -0.3061,0.3063z"/>
  <path class="fil0" d="M21.0725 1.6852c-0.5067,0 -0.919,0.4122 -0.919,0.9189 0,0.5067 0.4123,0.919 0.919,0.919 0.5067,0 0.9191,-0.4123 0.9191,-0.919 0,-0.5068 -0.4123,-0.9189 -0.9191,-0.9189zm0 2.4504c-0.8444,0 -1.5316,-0.687 -1.5316,-1.5315 0,-0.6941 0.4643,-1.2817 1.0985,-1.469l-0.6194 -0.7679c0.0559,-0.0546 0.1206,-0.1046 0.1925,-0.1491l0.86 1.0662 0.86 -1.0662c0.0719,0.0445 0.1366,0.0946 0.1925,0.1491l-0.6194 0.7679c0.6344,0.1872 1.0985,0.7749 1.0985,1.4691 0,0.8445 -0.6869,1.5315 -1.5316,1.5315z"/>
  <path class="fil1" d="M21.6896 0.1144c-0.1821,-0.0728 -0.3926,-0.1144 -0.6171,-0.1144 -0.2244,0 -0.435,0.0416 -0.6171,0.1144l0.6171 0.765 0.6171 -0.765z"/>
  <path class="fil0" d="M14.5794 1.0727c0.1691,0 0.3063,0.137 0.3063,0.3062 0,0.1692 -0.1372,0.3064 -0.3063,0.3064 -0.5067,0 -0.9189,0.4122 -0.9189,0.9189l0 1.2252c0,0.1691 -0.1372,0.3062 -0.3063,0.3062 -0.1693,0 -0.3065,-0.1371 -0.3065,-0.3062l0 -1.2252c0.0001,-0.8445 0.6871,-1.5315 1.5317,-1.5315z"/>
  <path class="fil1" d="M1.5334 1.0586c0.8455,0 1.5333,0.6878 1.5333,1.5333l0 1.2266c0,0.1694 -0.1373,0.3067 -0.3066,0.3067 -0.1694,0 -0.3066,-0.1373 -0.3066,-0.3067l0 -1.2266c0,-0.5073 -0.4127,-0.92 -0.92,-0.92 -0.5074,0 -0.92,0.4127 -0.92,0.92l0 1.2266c0,0.1694 -0.1373,0.3067 -0.3067,0.3067 -0.1694,0 -0.3067,-0.1373 -0.3067,-0.3067l0 -1.2266c-0.0001,-0.8454 0.6878,-1.5333 1.5333,-1.5333z"/>
 </g>
</svg>
