<?xml version="1.0" encoding="UTF-8"?>
<!DOCTYPE svg PUBLIC "-//W3C//DTD SVG 1.1//EN" "http://www.w3.org/Graphics/SVG/1.1/DTD/svg11.dtd">
<!-- Creator: CorelDRAW -->
<svg xmlns="http://www.w3.org/2000/svg" xml:space="preserve" width="3.7042mm" height="3.7043mm" version="1.1" style="shape-rendering:geometricPrecision; text-rendering:geometricPrecision; image-rendering:optimizeQuality; fill-rule:evenodd; clip-rule:evenodd"
viewBox="0 0 23.86 23.86"
 xmlns:xlink="http://www.w3.org/1999/xlink"
 xmlns:xodm="http://www.corel.com/coreldraw/odm/2003">
 <defs>
  <style type="text/css">
   <![CDATA[
    .fil1 {fill:#4D4D4D;fill-rule:nonzero}
    .fil0 {fill:#FF6700;fill-rule:nonzero}
   ]]>
  </style>
 </defs>
 <g id="Layer_x0020_1">
  <metadata id="CorelCorpID_0Corel-Layer"/>
  <g id="_2997109727712">
   <g>
    <path class="fil0" d="M4.15 23.86c-2.28,0 -4.15,-1.87 -4.15,-4.15l0 -8.3 2.08 0 0 4.67c0.62,-0.31 1.35,-0.52 2.07,-0.52 2.28,0 4.15,1.87 4.15,4.15 0,2.28 -1.87,4.15 -4.15,4.15l0 0zm0 -6.22c-1.14,0 -2.07,0.93 -2.07,2.07 0,1.14 0.93,2.07 2.07,2.07 1.14,0 2.07,-0.93 2.07,-2.07 0,-1.14 -0.93,-2.07 -2.07,-2.07z"/>
   </g>
   <g>
    <path class="fil1" d="M23.86 19.71l-2.07 0c0,-9.75 -7.88,-17.63 -17.63,-17.63l0 -2.08c10.89,0 19.71,8.82 19.71,19.71l0 0zm-5.19 0l-2.07 0c0,-6.85 -5.6,-12.45 -12.45,-12.45l0 -2.07c7.99,0 14.52,6.53 14.52,14.52l0 0zm-5.19 0l-2.07 0c0,-4.05 -3.22,-7.26 -7.26,-7.26l0 -2.07c5.19,0 9.34,4.15 9.34,9.34z"/>
   </g>
  </g>
 </g>
</svg>
