<?xml version="1.0" encoding="UTF-8"?>
<!DOCTYPE svg PUBLIC "-//W3C//DTD SVG 1.0//EN" "http://www.w3.org/TR/2001/REC-SVG-20010904/DTD/svg10.dtd">
<!-- Creator: CorelDRAW -->
<svg xmlns="http://www.w3.org/2000/svg" xml:space="preserve" width="20.8283mm" height="7.4679mm" version="1.0" style="shape-rendering:geometricPrecision; text-rendering:geometricPrecision; image-rendering:optimizeQuality; fill-rule:evenodd; clip-rule:evenodd"
viewBox="0 0 133.42 47.84"
 xmlns:xlink="http://www.w3.org/1999/xlink"
 xmlns:xodm="http://www.corel.com/coreldraw/odm/2003">
 <defs>
  <style type="text/css">
   <![CDATA[
    .fil1 {fill:#666666;fill-rule:nonzero}
    .fil0 {fill:#FF6600;fill-rule:nonzero}
   ]]>
  </style>
 </defs>
 <g id="Layer_x0020_1">
  <metadata id="CorelCorpID_0Corel-Layer"/>
  <path class="fil0" d="M-0 17.9l2.57 0 0 -9.85 -2.57 -2.57 0 12.42zm11.59 -17.85l0 11.55 -11.59 -11.59 0 3.64 2.57 2.57 0 0 9.01 9.01 2.57 2.57 0 -17.76 -2.57 0z"/>
  <path id="_1" class="fil0" d="M19.6 9.62l11.48 0 0 -2.57 -11.48 0 0 -3.12 -2.57 0 0 13.98 15.78 0 0 -2.57 -13.2 0 0 -5.71zm-2.57 -9.56l0 2.57 15.78 0 0 -2.57 -15.78 0z"/>
  <path id="_2" class="fil0" d="M50.74 7.09l-8.84 0 1.19 2.57 5.08 0 0 5.67 -6.03 0c-3.22,-0.43 -5.71,-3.1 -5.71,-6.33 0,-3.22 2.49,-5.9 5.71,-6.33l8.57 0 0 -2.57 -7.67 0c-2.5,0 -4.77,0.98 -6.41,2.57l0 0c-1.67,1.62 -2.71,3.85 -2.71,6.33 0,2.48 1.03,4.72 2.71,6.33l0 0c1.65,1.59 3.91,2.57 6.41,2.57l7.7 0 0 -10.81z"/>
  <path id="_3" class="fil0" d="M53.31 17.9l3.4 0 5.66 -10.22 -1.69 -3.08 -7.37 13.31zm11.61 -14.83l-1.7 -3.07 0 0 -1.7 3.07 1.7 3.07 6.51 11.76 3.4 0 -8.21 -14.83z"/>
  <path id="_4" class="fil0" d="M85.8 8.69l-0.31 -0.51c0.02,-0.01 0.04,-0.02 0.05,-0.03 0.01,-0 0.02,-0.01 0.02,-0.01 0.05,-0.03 0.09,-0.06 0.14,-0.09 0,-0 0,-0 0.01,-0 0.05,-0.04 0.09,-0.07 0.14,-0.1 0.1,-0.07 0.2,-0.14 0.3,-0.22 0.03,-0.02 0.05,-0.04 0.08,-0.06 0.04,-0.03 0.08,-0.06 0.11,-0.09 0.05,-0.04 0.11,-0.09 0.16,-0.13 0,-0 0.01,-0.01 0.01,-0.01 0.04,-0.04 0.08,-0.07 0.12,-0.11 0.12,-0.1 0.23,-0.21 0.34,-0.32 1.2,-1.19 2.06,-2.71 2.44,-4.41 0.14,-0.63 0.21,-1.28 0.21,-1.94 0,-0.21 -0,-0.43 -0.02,-0.63l-14.79 0 0 17.89 2.57 0 0 -8.33 3.31 0c0.06,0 0.13,-0 0.19,-0 0.03,0 0.06,0 0.09,0 0.05,-0 0.1,-0 0.15,-0.01 0.01,0 0.03,0 0.04,0 0.07,-0 0.14,-0.01 0.21,-0.01 0,0 0,0 0.01,0 0.07,-0 0.15,-0.01 0.22,-0.02 0.06,-0 0.12,-0.01 0.18,-0.02 0.02,-0 0.05,-0.01 0.07,-0.01 0.06,-0.01 0.12,-0.02 0.17,-0.03 0.02,0 0.04,-0 0.07,-0.01 0.04,-0.01 0.09,-0.01 0.13,-0.02 0.16,-0.03 0.31,-0.06 0.46,-0.09 0.07,-0.01 0.13,-0.03 0.2,-0.04 0.01,-0 0.03,-0.01 0.04,-0.01 0.04,-0.01 0.09,-0.02 0.14,-0.04 0.01,-0 0.02,-0.01 0.03,-0.01l0.14 0.23 5.14 8.43 3.01 0 -5.62 -9.21zm-2.57 -2.21c-0.78,0.34 -1.64,0.52 -2.52,0.52l-3.31 0 0 -4.41 9.37 0c-0.31,0.97 -0.86,1.85 -1.59,2.58 -0.57,0.56 -1.23,1 -1.94,1.31l0 0z"/>
  <path id="_5" class="fil0" d="M93.99 17.9l0 -17.88 2.57 0 0 17.88 -2.57 0zm2.48 -17.79l-2.4 0 0 17.71 2.4 0 0 -17.71zm-2.48 -0.09l0 17.88 2.57 0 0 -17.88 -2.57 0z"/>
  <path id="_6" class="fil0" d="M99.12 17.9l2.57 0 0 -9.85 -2.57 -2.57 0 12.42zm11.59 -17.85l0 11.55 -11.59 -11.59 0 3.64 2.57 2.57 0 0 9.01 9.01 2.57 2.57 0 -17.76 -2.57 0z"/>
  <path id="_7" class="fil0" d="M124.49 2.62c3.51,0 6.35,2.85 6.35,6.36 0,3.5 -2.85,6.36 -6.35,6.36 -3.5,0 -6.36,-2.85 -6.36,-6.36 0,-3.5 2.85,-6.36 6.36,-6.36zm-8.93 6.36c0,4.93 4,8.93 8.93,8.93 4.93,0 8.93,-4 8.93,-8.93 0,-4.93 -4,-8.93 -8.93,-8.93 -4.93,0 -8.93,4 -8.93,8.93z"/>
  <path class="fil0" d="M34.61 35.44c-0.74,-5.27 -5.24,-9.33 -10.7,-9.39l0 -0.01 -8.81 0 0 3.15 9.03 0c1.63,0.07 3.13,0.65 4.35,1.58 1.49,1.13 2.56,2.77 2.94,4.67 0.1,0.5 0.15,1.02 0.15,1.54 0,0.55 -0.05,1.08 -0.16,1.6 -0.67,3.17 -3.26,5.64 -6.5,6.11l-6.67 0 0 -13.92 -3.14 0 0 17.06 10.02 0c4.88,-0.59 8.77,-4.41 9.49,-9.25 0.08,-0.52 0.11,-1.05 0.11,-1.6 0,-0.52 -0.04,-1.04 -0.11,-1.54l0 0z"/>
  <path id="_1_0" class="fil0" d="M51.28 36.58l-0.38 -0.62c0.02,-0.01 0.04,-0.02 0.06,-0.04 0.01,-0.01 0.02,-0.01 0.03,-0.02 0.06,-0.04 0.12,-0.07 0.17,-0.11 0,-0.01 0.01,-0.01 0.01,-0.01 0.06,-0.04 0.11,-0.08 0.17,-0.13 0.13,-0.09 0.25,-0.17 0.37,-0.27 0.03,-0.03 0.07,-0.05 0.1,-0.08 0.05,-0.04 0.09,-0.08 0.14,-0.11 0.07,-0.05 0.13,-0.1 0.19,-0.16 0.01,-0.01 0.01,-0.01 0.02,-0.01 0.05,-0.04 0.1,-0.09 0.15,-0.13 0.14,-0.13 0.28,-0.26 0.42,-0.39 1.47,-1.45 2.52,-3.31 2.99,-5.39 0.17,-0.77 0.26,-1.56 0.26,-2.37 0,-0.26 -0.01,-0.52 -0.03,-0.77l-18.07 0 0 21.85 3.14 0 0 -10.18 4.05 0c0.08,0 0.15,-0.01 0.23,-0.01 0.04,0 0.08,0 0.12,0 0.06,-0.01 0.12,-0.01 0.18,-0.01 0.02,0 0.03,0 0.05,0 0.08,-0.01 0.17,-0.01 0.25,-0.02 0.01,0 0.01,0 0.01,0 0.09,-0.01 0.18,-0.02 0.27,-0.03 0.07,-0.01 0.15,-0.01 0.22,-0.02 0.03,-0.01 0.06,-0.01 0.09,-0.01 0.07,-0.01 0.14,-0.02 0.21,-0.03 0.03,0 0.05,-0.01 0.08,-0.01 0.05,-0.01 0.11,-0.02 0.16,-0.03 0.19,-0.03 0.38,-0.07 0.56,-0.12 0.08,-0.02 0.16,-0.04 0.25,-0.05 0.02,-0.01 0.03,-0.01 0.06,-0.02 0.05,-0.02 0.11,-0.03 0.17,-0.04 0.01,-0.01 0.02,-0.01 0.04,-0.01l0.17 0.28 6.28 10.3 3.68 0 -6.86 -11.25zm-3.14 -2.7c-0.96,0.42 -2,0.63 -3.08,0.63l-4.05 0 0 -5.39 11.44 0c-0.38,1.19 -1.04,2.26 -1.94,3.16 -0.69,0.68 -1.5,1.22 -2.37,1.6l0 0z"/>
  <path id="_2_1" class="fil0" d="M59.49 47.84l4.15 0 6.92 -12.49 -2.07 -3.77 -9 16.26zm14.18 -18.12l-2.08 -3.75 0 0 -2.08 3.75 2.08 3.75 7.95 14.37 4.16 0 -10.03 -18.12z"/>
  <path id="_3_2" class="fil0" d="M107.71 26.31l-6.24 13.87 -4.53 -10.05 -1.72 -3.82 -0.01 0 -1.72 3.82 -4.53 10.05 -6.25 -13.87 -3.44 0 7.97 17.7 1.72 3.83 1.72 -3.83 4.53 -10.05 4.53 10.05 1.73 3.83 1.72 -3.83 7.97 -17.7 -3.45 0z"/>
  <path class="fil1" d="M117.13 47.84c-0.27,-0.85 -0.98,-2.91 -2.15,-6.17 0.36,0.01 0.66,0.01 0.92,0.01 0.27,0 0.55,-0 0.84,-0.01l1.42 4.64 0.19 -0.53 1.36 -3.47c0.06,-0.16 0.14,-0.38 0.24,-0.64 0.33,0.01 0.62,0.01 0.88,0.01 0.26,0 0.56,-0 0.9,-0.01l-0.99 2.14 -1.43 3.24 -0.32 0.78c-0.36,-0.01 -0.67,-0.01 -0.91,-0.01 -0.26,0 -0.58,0 -0.96,0.01z"/>
  <path id="_1_3" class="fil1" d="M124.63 47.84c0.06,-0.62 0.1,-1.33 0.14,-2.12l0.12 -2.43c0.04,-0.82 0.07,-1.53 0.08,-2.13 -0.18,0.11 -0.32,0.2 -0.41,0.26 -0.09,0.06 -0.33,0.22 -0.7,0.48 0.02,-0.26 0.04,-0.54 0.05,-0.86 0.01,-0.32 0.02,-0.56 0.02,-0.73 0.14,-0.08 0.32,-0.19 0.55,-0.32 0.23,-0.14 0.37,-0.22 0.42,-0.26 0.06,-0.04 0.13,-0.1 0.23,-0.17 0.24,0.01 0.53,0.01 0.86,0.01 0.33,0 0.65,-0 0.94,-0.01l-0.07 0.83c-0.02,0.19 -0.04,0.46 -0.06,0.82l-0.24 4.82 -0.02 0.72c-0,0.15 -0.01,0.3 -0.01,0.45l0.01 0.64c-0.27,-0.01 -0.57,-0.01 -0.89,-0.01 -0.38,0 -0.72,0 -1.02,0.01z"/>
 </g>
</svg>
