<?xml version="1.0" encoding="UTF-8"?>
<!DOCTYPE svg PUBLIC "-//W3C//DTD SVG 1.0//EN" "http://www.w3.org/TR/2001/REC-SVG-20010904/DTD/svg10.dtd">
<!-- Creator: CorelDRAW -->
<svg xmlns="http://www.w3.org/2000/svg" xml:space="preserve" width="4.4264mm" height="3.5424mm" version="1.0" style="shape-rendering:geometricPrecision; text-rendering:geometricPrecision; image-rendering:optimizeQuality; fill-rule:evenodd; clip-rule:evenodd"
viewBox="0 0 7.58 6.07"
 xmlns:xlink="http://www.w3.org/1999/xlink"
 xmlns:xodm="http://www.corel.com/coreldraw/odm/2003">
 <defs>
  <style type="text/css">
   <![CDATA[
    .str0 {stroke:gray;stroke-width:0.45;stroke-linecap:round;stroke-linejoin:round;stroke-miterlimit:22.9256}
    .str1 {stroke:#FF6600;stroke-width:0.45;stroke-linecap:round;stroke-linejoin:round;stroke-miterlimit:22.9256}
    .fil0 {fill:none}
    .fil2 {fill:#E6E6E6}
    .fil1 {fill:red}
   ]]>
  </style>
 </defs>
 <g id="Layer_x0020_1">
  <metadata id="CorelCorpID_0Corel-Layer"/>
  <g id="_3033274054112">
   <path class="fil0 str0" d="M1.69 1.18l5.33 0c0.18,0 0.33,0.15 0.33,0.33l0 4c0,0.18 -0.15,0.33 -0.33,0.33l-5.33 0c-0.18,0 -0.33,-0.15 -0.33,-0.33l0 -4c0,-0.18 0.15,-0.33 0.33,-0.33z"/>
   <path id="secondary" class="fil0 str1" d="M7.23 1.25l-2.67 2.1c-0.06,0.05 -0.13,0.07 -0.21,0.07 -0.08,0 -0.15,-0.03 -0.21,-0.07l-2.67 -2.1c0.06,-0.05 0.13,-0.07 0.21,-0.07l5.33 0c0.08,0 0.15,0.03 0.21,0.07l0 0z"/>
  </g>
  <g>
   <path class="fil1" d="M1.42 0.51c0.5,0 0.9,0.41 0.9,0.9 0,0.5 -0.41,0.9 -0.9,0.9 -0.5,0 -0.9,-0.41 -0.9,-0.9 0,-0.5 0.41,-0.9 0.9,-0.9z"/>
   <path id="_1" class="fil2" d="M1.42 0c0.39,0 0.75,0.16 1,0.42 0.26,0.26 0.42,0.61 0.42,1 0,0.39 -0.16,0.74 -0.42,1l-0 0 -0 0c-0.26,0.26 -0.61,0.42 -1,0.42 -0.39,0 -0.75,-0.16 -1,-0.42 -0.26,-0.26 -0.42,-0.61 -0.42,-1 0,-0.39 0.16,-0.74 0.42,-1l0 -0c0.26,-0.26 0.61,-0.42 1,-0.42zm0 0.51c0.5,0 0.9,0.41 0.9,0.9 0,0.5 -0.41,0.9 -0.9,0.9 -0.5,0 -0.9,-0.41 -0.9,-0.9 0,-0.5 0.41,-0.9 0.9,-0.9z"/>
  </g>
 </g>
</svg>
