<?xml version="1.0" encoding="UTF-8"?>
<!DOCTYPE svg PUBLIC "-//W3C//DTD SVG 1.0//EN" "http://www.w3.org/TR/2001/REC-SVG-20010904/DTD/svg10.dtd">
<!-- Creator: CorelDRAW -->
<svg xmlns="http://www.w3.org/2000/svg" xml:space="preserve" width="26.8398mm" height="26.8398mm" version="1.0" style="shape-rendering:geometricPrecision; text-rendering:geometricPrecision; image-rendering:optimizeQuality; fill-rule:evenodd; clip-rule:evenodd"
viewBox="0 0 112.36 112.36"
 xmlns:xlink="http://www.w3.org/1999/xlink"
 xmlns:xodm="http://www.corel.com/coreldraw/odm/2003">
 <defs>
  <style type="text/css">
   <![CDATA[
    .fil0 {fill:#CCCCCC;fill-rule:nonzero}
   ]]>
  </style>
 </defs>
 <g id="Layer_x0020_1">
  <metadata id="CorelCorpID_0Corel-Layer"/>
  <g id="_3032213504272">
   <g>
    <circle class="fil0" cx="36.15" cy="40.19" r="9.78"/>
    <circle class="fil0" cx="76.21" cy="40.19" r="9.78"/>
    <rect class="fil0" x="35.11" y="72.79" width="42.13" height="7.02"/>
    <path class="fil0" d="M15.84 112.36l80.67 0c8.73,0 15.84,-7.11 15.84,-15.84l0 -80.67c0,-8.74 -7.11,-15.84 -15.84,-15.84l-80.67 0c-8.74,0 -15.84,7.11 -15.84,15.84l0 80.67c0,8.73 7.11,15.84 15.84,15.84zm-8.82 -96.52c0,-4.86 3.96,-8.82 8.82,-8.82l80.67 0c4.86,0 8.82,3.96 8.82,8.82l0 80.67c0,4.86 -3.96,8.82 -8.82,8.82l-80.67 0c-4.86,0 -8.82,-3.96 -8.82,-8.82l0 -80.67z"/>
   </g>
  </g>
 </g>
</svg>
