<?xml version="1.0" encoding="UTF-8"?>
<!DOCTYPE svg PUBLIC "-//W3C//DTD SVG 1.0//EN" "http://www.w3.org/TR/2001/REC-SVG-20010904/DTD/svg10.dtd">
<!-- Creator: CorelDRAW -->
<svg xmlns="http://www.w3.org/2000/svg" xml:space="preserve" width="3.8812mm" height="3.9962mm" version="1.0" style="shape-rendering:geometricPrecision; text-rendering:geometricPrecision; image-rendering:optimizeQuality; fill-rule:evenodd; clip-rule:evenodd"
viewBox="0 0 3.69 3.79"
 xmlns:xlink="http://www.w3.org/1999/xlink"
 xmlns:xodm="http://www.corel.com/coreldraw/odm/2003">
 <defs>
  <style type="text/css">
   <![CDATA[
    .fil0 {fill:#4D4D4D;fill-rule:nonzero}
    .fil1 {fill:#FF6600;fill-rule:nonzero}
   ]]>
  </style>
 </defs>
 <g id="Layer_x0020_1">
  <metadata id="CorelCorpID_0Corel-Layer"/>
  <g id="_2997230544064">
   <path class="fil0" d="M3.6 0.28l-0.12 -0.15c-0.13,-0.16 -0.36,-0.18 -0.52,-0.05l-1.47 1.21c-0.02,-0 -0.04,-0 -0.06,-0 -0.15,0 -0.3,0.05 -0.42,0.15 -0.13,0.11 -0.4,0.41 -0.61,0.73 -0.29,0.42 -0.37,0.7 -0.26,0.84 0.05,0.06 0.12,0.09 0.23,0.09 0.42,0 1.28,-0.48 1.48,-0.64 0.13,-0.11 0.22,-0.27 0.24,-0.44l1.47 -1.21c0.08,-0.06 0.12,-0.15 0.13,-0.25 0.01,-0.1 -0.02,-0.19 -0.08,-0.27zm-1.67 1.71c-0.01,0.13 -0.08,0.25 -0.18,0.34 -0.21,0.17 -1.02,0.6 -1.37,0.6 -0,0 -0,0 -0.01,-0l1.16 -0.96c0.03,-0.03 0.04,-0.08 0.01,-0.11 -0.03,-0.03 -0.08,-0.04 -0.11,-0.01l-1.17 0.97c0.01,-0.1 0.08,-0.27 0.28,-0.56 0.2,-0.29 0.46,-0.59 0.58,-0.69 0.09,-0.07 0.2,-0.11 0.31,-0.11 0.15,0 0.29,0.07 0.38,0.18 0.08,0.1 0.12,0.23 0.11,0.36zm0.15 -0.18c-0.02,-0.1 -0.07,-0.2 -0.14,-0.28 -0.07,-0.08 -0.16,-0.15 -0.25,-0.19l0.2 -0.17 0.38 0.48 -0.2 0.16zm1.45 -1.27c-0.01,0.06 -0.03,0.11 -0.08,0.14l-1.06 0.87 -0.38 -0.48 1.05 -0.87c0.09,-0.07 0.22,-0.06 0.29,0.03l0.12 0.15c0.04,0.04 0.05,0.1 0.05,0.15z"/>
   <path class="fil1" d="M2.61 3.08c-0.23,-0.17 -0.6,-0.14 -1.12,0.1 -0.68,0.32 -1.01,0.28 -1.17,0.19 -0.15,-0.09 -0.17,-0.23 -0.17,-0.24 -0,-0.04 -0.04,-0.08 -0.09,-0.07 -0.04,0 -0.08,0.04 -0.07,0.09 0,0.01 0.02,0.23 0.24,0.36 0.28,0.16 0.72,0.1 1.32,-0.18 0.45,-0.21 0.78,-0.25 0.95,-0.12 0.2,0.15 0.15,0.49 0.15,0.5 -0.01,0.04 0.02,0.08 0.07,0.09 0,0 0.01,0 0.01,0 0.04,0 0.07,-0.03 0.08,-0.07 0,-0.02 0.06,-0.44 -0.21,-0.65z"/>
  </g>
 </g>
</svg>
