<?xml version="1.0" encoding="UTF-8"?>
<!DOCTYPE svg PUBLIC "-//W3C//DTD SVG 1.0//EN" "http://www.w3.org/TR/2001/REC-SVG-20010904/DTD/svg10.dtd">
<!-- Creator: CorelDRAW -->
<svg xmlns="http://www.w3.org/2000/svg" xml:space="preserve" width="3.8366mm" height="3.8374mm" version="1.0" style="shape-rendering:geometricPrecision; text-rendering:geometricPrecision; image-rendering:optimizeQuality; fill-rule:evenodd; clip-rule:evenodd"
viewBox="0 0 3.6 3.6"
 xmlns:xlink="http://www.w3.org/1999/xlink"
 xmlns:xodm="http://www.corel.com/coreldraw/odm/2003">
 <defs>
  <style type="text/css">
   <![CDATA[
    .fil0 {fill:#4D4D4D;fill-rule:nonzero}
    .fil1 {fill:#FF6600;fill-rule:nonzero}
   ]]>
  </style>
 </defs>
 <g id="Layer_x0020_1">
  <metadata id="CorelCorpID_0Corel-Layer"/>
  <g id="_2996737502064">
   <path class="fil0" d="M1.8 2.49c-0.37,0 -0.69,-0.31 -0.69,-0.69 0,-0.37 0.31,-0.69 0.69,-0.69 0.37,0 0.69,0.31 0.69,0.69 0,0.37 -0.31,0.69 -0.69,0.69zm0 -1.07c-0.21,0 -0.38,0.18 -0.38,0.38 0,0.21 0.18,0.38 0.38,0.38 0.21,0 0.38,-0.18 0.38,-0.38 0,-0.21 -0.17,-0.38 -0.38,-0.38z"/>
   <path class="fil1" d="M3.07 0.53c0.19,0.19 0.22,0.5 0.08,0.72 0.26,0.05 0.45,0.28 0.45,0.56 0,0.28 -0.19,0.5 -0.45,0.56 0.15,0.22 0.11,0.52 -0.08,0.72 -0.2,0.19 -0.5,0.22 -0.72,0.08 -0.05,0.26 -0.28,0.45 -0.56,0.45 -0.28,0 -0.5,-0.19 -0.56,-0.45 -0.23,0.15 -0.52,0.11 -0.72,-0.08 -0.18,-0.18 -0.23,-0.49 -0.08,-0.72 -0.26,-0.05 -0.45,-0.28 -0.45,-0.56 0,-0.28 0.19,-0.5 0.45,-0.56 -0.15,-0.23 -0.11,-0.52 0.08,-0.72 0.19,-0.19 0.48,-0.23 0.72,-0.08 0.05,-0.26 0.28,-0.45 0.56,-0.45 0.28,0 0.5,0.19 0.56,0.45 0.23,-0.15 0.51,-0.11 0.72,0.08zm-2.34 2.32c0.1,0.1 0.28,0.1 0.38,0l0.11 -0.11c0.11,-0.11 0.3,-0.07 0.3,0.08l0 0.2c0,0.15 0.12,0.28 0.27,0.28 0.15,0 0.28,-0.12 0.28,-0.27l0 -0.21c0,-0.13 0.15,-0.19 0.25,-0.11l0.14 0.14c0.1,0.1 0.28,0.11 0.38,0.01 0.11,-0.11 0.11,-0.28 0,-0.39l-0.14 -0.14c-0.09,-0.08 -0.03,-0.25 0.11,-0.25l0.2 0c0.15,0 0.28,-0.12 0.28,-0.27 0,-0.15 -0.12,-0.28 -0.27,-0.28l-0.21 0c-0.11,0.01 -0.21,-0.15 -0.11,-0.25l0.14 -0.15c0.11,-0.11 0.11,-0.28 0,-0.38 -0.1,-0.1 -0.28,-0.1 -0.38,0l-0.15 0.14c-0.12,0.1 -0.24,0.01 -0.25,-0.11l0 -0.2c0,-0.15 -0.12,-0.28 -0.27,-0.28 -0.15,-0 -0.28,0.12 -0.28,0.27l0 0.21c0,0.14 -0.17,0.19 -0.25,0.11l-0.15 -0.15c-0.1,-0.1 -0.28,-0.1 -0.38,0 -0.11,0.11 -0.09,0.27 0,0.38l0.14 0.14c0.09,0.08 0.03,0.25 -0.11,0.25l-0.21 0c-0.15,0 -0.28,0.12 -0.28,0.27 -0,0.15 0.12,0.28 0.27,0.28l0.21 0c0.12,-0 0.2,0.13 0.11,0.25l-0.14 0.15c-0.1,0.1 -0.1,0.27 -0,0.38z"/>
  </g>
 </g>
</svg>
