<?xml version="1.0" encoding="UTF-8"?>
<!DOCTYPE svg PUBLIC "-//W3C//DTD SVG 1.1//EN" "http://www.w3.org/Graphics/SVG/1.1/DTD/svg11.dtd">
<!-- Creator: CorelDRAW -->
<svg xmlns="http://www.w3.org/2000/svg" xml:space="preserve" width="2.5757mm" height="2.5749mm" version="1.1" style="shape-rendering:geometricPrecision; text-rendering:geometricPrecision; image-rendering:optimizeQuality; fill-rule:evenodd; clip-rule:evenodd"
viewBox="0 0 9.92 9.92"
 xmlns:xlink="http://www.w3.org/1999/xlink"
 xmlns:xodm="http://www.corel.com/coreldraw/odm/2003">
 <defs>
  <style type="text/css">
   <![CDATA[
    .fil0 {fill:gray;fill-rule:nonzero}
   ]]>
  </style>
 </defs>
 <g id="Layer_x0020_1">
  <metadata id="CorelCorpID_0Corel-Layer"/>
  <g id="_2996737048592">
   <path id="secondary" class="fil0" d="M9.42 9.92c-0,0 -0,0 -0,0 -0.13,0 -0.26,-0.05 -0.35,-0.14l-2.98 -2.98c-0.09,-0.09 -0.15,-0.22 -0.15,-0.35 0,-0.28 0.22,-0.5 0.5,-0.5 0.13,0 0.26,0.05 0.35,0.15l2.98 2.98c0.09,0.09 0.15,0.22 0.15,0.35 0,0.13 -0.05,0.26 -0.15,0.35 -0.09,0.09 -0.22,0.14 -0.35,0.14 -0,0 -0,0 -0,0l0 0z"/>
   <circle id="primary" class="fil0" cx="3.97" cy="3.97" r="3.97"/>
  </g>
 </g>
</svg>
