<?xml version="1.0" encoding="UTF-8"?>
<!DOCTYPE svg PUBLIC "-//W3C//DTD SVG 1.0//EN" "http://www.w3.org/TR/2001/REC-SVG-20010904/DTD/svg10.dtd">
<!-- Creator: CorelDRAW -->
<svg xmlns="http://www.w3.org/2000/svg" xml:space="preserve" width="3.8365mm" height="3.8366mm" version="1.0" style="shape-rendering:geometricPrecision; text-rendering:geometricPrecision; image-rendering:optimizeQuality; fill-rule:evenodd; clip-rule:evenodd"
viewBox="0 0 17.54 17.54"
 xmlns:xlink="http://www.w3.org/1999/xlink"
 xmlns:xodm="http://www.corel.com/coreldraw/odm/2003">
 <defs>
  <style type="text/css">
   <![CDATA[
    .fil0 {fill:#4D4D4D;fill-rule:nonzero}
    .fil1 {fill:#FF6600;fill-rule:nonzero}
   ]]>
  </style>
 </defs>
 <g id="Layer_x0020_1">
  <metadata id="CorelCorpID_0Corel-Layer"/>
  <g id="select">
   <path class="fil0" d="M2.5 6.26l0 5.01 -2.5 0 0 -5.01 2.5 0zm1.25 -6.26l0 2.51 -1.25 0 0 1.25 -2.5 0 0 -3.76 3.76 0zm13.78 0l0 3.76 -2.51 0 0 -1.25 -1.25 0 0 -2.51 3.76 0zm-6.26 0l0 2.51 -5.01 0 0 -2.51 5.01 0zm-8.77 13.78l0 1.25 1.25 0 0 2.5 -3.76 0 0 -3.76 2.5 0z"/>
   <path class="fil1" d="M9.01 7.45l0.13 0.05 6.57 2.81c1.08,0.46 0.97,2 -0.1,2.34l-0.15 0.04 -0.83 0.17 2.54 2.54c0.49,0.49 0.49,1.28 0,1.77 -0.45,0.45 -1.16,0.49 -1.65,0.1l-0.12 -0.1 -2.54 -2.54 -0.17 0.83c-0.23,1.16 -1.76,1.36 -2.31,0.38l-0.07 -0.13 -2.81 -6.57c-0.43,-1 0.52,-2 1.51,-1.69z"/>
  </g>
 </g>
</svg>
