<?xml version="1.0" encoding="UTF-8"?>
<!DOCTYPE svg PUBLIC "-//W3C//DTD SVG 1.1//EN" "http://www.w3.org/Graphics/SVG/1.1/DTD/svg11.dtd">
<!-- Creator: CorelDRAW -->
<svg xmlns="http://www.w3.org/2000/svg" xml:space="preserve" width="3.7042mm" height="3.7041mm" version="1.1" style="shape-rendering:geometricPrecision; text-rendering:geometricPrecision; image-rendering:optimizeQuality; fill-rule:evenodd; clip-rule:evenodd"
viewBox="0 0 847.19 847.17"
 xmlns:xlink="http://www.w3.org/1999/xlink"
 xmlns:xodm="http://www.corel.com/coreldraw/odm/2003">
 <defs>
  <style type="text/css">
   <![CDATA[
    .fil0 {fill:#4D4D4D;fill-rule:nonzero}
    .fil1 {fill:#FF6700;fill-rule:nonzero}
   ]]>
  </style>
 </defs>
 <g id="Layer_x0020_1">
  <metadata id="CorelCorpID_0Corel-Layer"/>
  <g id="_3033273244624">
   <path class="fil0" d="M244.72 0l-112.96 0c-70.58,0 -131.76,61.18 -131.76,131.76l0 108.27c0,75.29 61.18,136.49 131.76,136.49l108.27 0c75.29,0 136.49,-61.2 136.49,-131.81l0 -112.96c0,-70.58 -61.2,-131.76 -131.81,-131.76zm37.67 244.72c0,18.85 -18.82,37.67 -37.67,37.67l-112.96 0c-18.8,0 -37.65,-18.82 -37.65,-37.67l0 -112.96c0,-18.8 18.85,-37.65 37.65,-37.65l108.27 0c23.53,0 42.36,18.85 42.36,37.65l0 112.96z"/>
   <path class="fil1" d="M715.41 0l-108.27 0c-75.29,0 -136.49,61.18 -136.49,131.76l0 108.27c0,75.31 61.18,131.78 131.81,131.78l108.23 -0.02c75.31,0 131.81,-61.16 131.81,-131.78l0 -108.25c4.69,-70.58 -56.49,-131.76 -127.07,-131.76zm37.62 244.72c0,18.85 -18.82,37.67 -37.62,37.67l-108.27 0c-23.53,0 -42.36,-18.82 -42.36,-37.67l0 -112.96c0,-18.8 18.82,-37.65 37.67,-37.65l108.23 0c23.53,0 42.36,18.85 42.36,37.65l0 112.96z"/>
   <path class="fil0" d="M715.41 470.64l-108.27 0c-75.31,0 -131.81,61.18 -131.81,131.81l0 108.25c0,75.31 61.18,131.81 131.81,131.81l108.27 -0.02c75.31,0 131.78,-61.18 131.78,-131.81l0 -108.25c-0.02,-70.58 -61.2,-131.78 -131.78,-131.78zm37.62 244.77c0,23.51 -18.82,37.65 -37.62,37.65l-108.27 0c-23.53,0 -37.65,-18.85 -37.65,-37.65l0 -108.27c0,-23.53 18.85,-37.65 37.65,-37.65l108.27 0c23.51,0 37.62,18.85 37.62,37.65l0 108.27z"/>
   <path class="fil0" d="M244.72 470.64l-112.96 0c-70.58,0 -131.76,61.2 -131.76,131.81l0 108.25c0,75.29 61.18,136.47 131.76,136.47l108.27 0c75.31,0 131.78,-61.18 131.78,-131.81l0 -108.25c4.71,-75.27 -56.49,-136.47 -127.09,-136.47zm37.67 244.77c0,18.8 -18.82,37.65 -37.67,37.65l-112.96 0c-18.8,0 -37.65,-18.85 -37.65,-37.65l0 -108.27c0,-23.53 18.85,-42.36 37.65,-42.36l108.27 0c23.53,0 42.36,18.82 42.36,37.67l0 112.96z"/>
  </g>
 </g>
</svg>
