<?xml version="1.0" encoding="UTF-8"?>
<!DOCTYPE svg PUBLIC "-//W3C//DTD SVG 1.1//EN" "http://www.w3.org/Graphics/SVG/1.1/DTD/svg11.dtd">
<!-- Creator: CorelDRAW -->
<svg xmlns="http://www.w3.org/2000/svg" xml:space="preserve" width="3.1623mm" height="3.9854mm" version="1.1" style="shape-rendering:geometricPrecision; text-rendering:geometricPrecision; image-rendering:optimizeQuality; fill-rule:evenodd; clip-rule:evenodd"
viewBox="0 0 8.57 10.8"
 xmlns:xlink="http://www.w3.org/1999/xlink"
 xmlns:xodm="http://www.corel.com/coreldraw/odm/2003">
 <defs>
  <style type="text/css">
   <![CDATA[
    .str0 {stroke:#4D4D4D;stroke-width:0.76;stroke-miterlimit:22.9256}
    .str1 {stroke:#FF6700;stroke-width:0.76;stroke-miterlimit:22.9256}
    .fil0 {fill:none}
   ]]>
  </style>
 </defs>
 <g id="Layer_x0020_1">
  <metadata id="CorelCorpID_0Corel-Layer"/>
  <g id="_3033274069856">
   <path class="fil0 str0" d="M0.38 9.37c0,-1.35 0.95,-2.49 2.23,-2.7l0.12 -0.02c1.03,-0.17 2.08,-0.17 3.11,0l0.12 0.02c1.29,0.21 2.23,1.36 2.23,2.7 0,0.58 -0.46,1.05 -1.02,1.05l-5.77 0c-0.56,0 -1.02,-0.47 -1.02,-1.05z"/>
   <path class="fil0 str1" d="M6.56 2.58c0,1.21 -1.02,2.2 -2.28,2.2 -1.26,0 -2.28,-0.98 -2.28,-2.2 0,-1.21 1.02,-2.2 2.28,-2.2 1.26,0 2.28,0.98 2.28,2.2z"/>
  </g>
 </g>
</svg>
